<svg width="453" height="194" viewBox="0 0 453 194" fill="none" xmlns="http://www.w3.org/2000/svg">
<path d="M15.8 122.602C12.4876 122.602 9.71239 122.076 7.4743 121.024C5.2362 119.972 3.54644 118.383 2.40501 116.257C1.26359 114.108 0.692871 111.434 0.692871 108.233C0.692871 107.718 0.692871 107.304 0.692871 106.991C0.692871 106.655 0.692871 106.23 0.692871 105.715H3.31144C3.31144 106.23 3.31144 106.644 3.31144 106.957C3.31144 107.271 3.31144 107.685 3.31144 108.199C3.31144 112.362 4.37454 115.417 6.50073 117.364C8.62692 119.289 11.6819 120.252 15.6657 120.252C19.851 120.252 22.9843 119.401 25.0657 117.7C27.1695 115.977 28.2214 113.481 28.2214 110.214C28.2214 107.931 27.6955 106.062 26.6436 104.607C25.6141 103.13 24.1593 101.888 22.2793 100.881C20.4217 99.8738 18.2172 98.945 15.6657 98.0945C12.7562 97.1321 10.2048 96.0354 8.01144 94.8045C5.81811 93.5512 4.11716 92.0404 2.90859 90.2724C1.70001 88.4819 1.09573 86.255 1.09573 83.5916C1.09573 81.0626 1.66644 78.9364 2.80787 77.2131C3.97168 75.4897 5.61668 74.1916 7.74287 73.3188C9.89144 72.4235 12.4429 71.9759 15.3972 71.9759C18.5529 71.9759 21.2498 72.4683 23.4879 73.4531C25.726 74.4154 27.4381 75.9038 28.6243 77.9181C29.8329 79.91 30.4372 82.4502 30.4372 85.5388C30.4372 86.1207 30.4372 86.6019 30.4372 86.9824C30.4372 87.3404 30.4372 87.8104 30.4372 88.3924H27.8186C27.8186 87.8328 27.8186 87.374 27.8186 87.0159C27.8186 86.6354 27.8186 86.1654 27.8186 85.6059C27.8186 81.6221 26.7331 78.7462 24.5622 76.9781C22.4136 75.21 19.381 74.3259 15.4643 74.3259C11.7267 74.3259 8.82835 75.0981 6.7693 76.6424C4.71025 78.1866 3.68073 80.5031 3.68073 83.5916C3.68073 85.8969 4.25144 87.8104 5.39287 89.3323C6.55668 90.8319 8.14573 92.0964 10.16 93.1259C12.1743 94.1331 14.4683 95.0731 17.0422 95.9459C19.9517 96.9083 22.4248 97.9826 24.4614 99.1688C26.5205 100.355 28.0872 101.81 29.1614 103.533C30.2581 105.256 30.8064 107.45 30.8064 110.113C30.8064 112.732 30.2245 114.97 29.0607 116.827C27.9193 118.685 26.2295 120.117 23.9914 121.124C21.7757 122.109 19.0453 122.602 15.8 122.602Z" fill="white"/>
<path d="M40.7499 121.997V72.4795H43.3013V121.997H40.7499Z" fill="white"/>
<path d="M68.3209 122.602C65.0086 122.602 62.2333 122.076 59.9952 121.024C57.7571 119.972 56.0674 118.383 54.9259 116.257C53.7845 114.108 53.2138 111.434 53.2138 108.233C53.2138 107.718 53.2138 107.304 53.2138 106.991C53.2138 106.655 53.2138 106.23 53.2138 105.715H55.8324C55.8324 106.23 55.8324 106.644 55.8324 106.957C55.8324 107.271 55.8324 107.685 55.8324 108.199C55.8324 112.362 56.8955 115.417 59.0216 117.364C61.1478 119.289 64.2028 120.252 68.1867 120.252C72.3719 120.252 75.5052 119.401 77.5866 117.7C79.6905 115.977 80.7424 113.481 80.7424 110.214C80.7424 107.931 80.2164 106.062 79.1645 104.607C78.135 103.13 76.6802 101.888 74.8002 100.881C72.9426 99.8738 70.7381 98.945 68.1867 98.0945C65.2771 97.1321 62.7257 96.0354 60.5324 94.8045C58.339 93.5512 56.6381 92.0404 55.4295 90.2724C54.2209 88.4819 53.6166 86.255 53.6166 83.5916C53.6166 81.0626 54.1874 78.9364 55.3288 77.2131C56.4926 75.4897 58.1376 74.1916 60.2638 73.3188C62.4124 72.4235 64.9638 71.9759 67.9181 71.9759C71.0738 71.9759 73.7707 72.4683 76.0088 73.4531C78.2469 74.4154 79.959 75.9038 81.1452 77.9181C82.3538 79.91 82.9581 82.4502 82.9581 85.5388C82.9581 86.1207 82.9581 86.6019 82.9581 86.9824C82.9581 87.3404 82.9581 87.8104 82.9581 88.3924H80.3395C80.3395 87.8328 80.3395 87.374 80.3395 87.0159C80.3395 86.6354 80.3395 86.1654 80.3395 85.6059C80.3395 81.6221 79.254 78.7462 77.0831 76.9781C74.9345 75.21 71.9019 74.3259 67.9852 74.3259C64.2476 74.3259 61.3493 75.0981 59.2902 76.6424C57.2312 78.1866 56.2016 80.5031 56.2016 83.5916C56.2016 85.8969 56.7724 87.8104 57.9138 89.3323C59.0776 90.8319 60.6666 92.0964 62.6809 93.1259C64.6952 94.1331 66.9893 95.0731 69.5631 95.9459C72.4726 96.9083 74.9457 97.9826 76.9824 99.1688C79.0414 100.355 80.6081 101.81 81.6824 103.533C82.779 105.256 83.3274 107.45 83.3274 110.113C83.3274 112.732 82.7455 114.97 81.5816 116.827C80.4402 118.685 78.7505 120.117 76.5124 121.124C74.2966 122.109 71.5662 122.602 68.3209 122.602Z" fill="white"/>
<path d="M120.128 74.7959H105.827L106.599 73.3859V121.997H103.98V73.3859L104.853 74.7959H90.4844V72.4795H120.128V74.7959Z" fill="white"/>
<path d="M130.464 74.7959L131.639 73.3859V96.9866L130.834 96.0131H151.681V98.2959H130.834L131.639 97.3224V121.091L130.464 119.681H154.065V121.997H129.054V72.4795H154.065V74.7959H130.464Z" fill="white"/>
<path d="M199.731 72.4795H204.095V121.997H201.611V74.5609L201.779 74.5945L186.84 121.997H182.912L168.006 74.5945L168.174 74.5609V121.997H165.69V72.4795H170.054L184.96 120.184H184.758L199.731 72.4795Z" fill="white"/>
<path d="M212.968 121.997L227.437 72.2781H231.331L245.7 121.997H242.98L229.35 74.2588H229.418L215.687 121.997H212.968ZM218.809 107.528V105.212H239.959V107.528H218.809Z" fill="white"/>
<path d="M284.765 122.602C281.452 122.602 278.677 122.076 276.439 121.024C274.201 119.972 272.511 118.383 271.37 116.257C270.228 114.108 269.658 111.434 269.658 108.233C269.658 107.718 269.658 107.304 269.658 106.991C269.658 106.655 269.658 106.23 269.658 105.715H272.276C272.276 106.23 272.276 106.644 272.276 106.957C272.276 107.271 272.276 107.685 272.276 108.199C272.276 112.362 273.339 115.417 275.466 117.364C277.592 119.289 280.647 120.252 284.631 120.252C288.816 120.252 291.949 119.401 294.031 117.7C296.134 115.977 297.186 113.481 297.186 110.214C297.186 107.931 296.66 106.062 295.608 104.607C294.579 103.13 293.124 101.888 291.244 100.881C289.386 99.8738 287.182 98.945 284.631 98.0945C281.721 97.1321 279.17 96.0354 276.976 94.8045C274.783 93.5512 273.082 92.0404 271.873 90.2724C270.665 88.4819 270.061 86.255 270.061 83.5916C270.061 81.0626 270.631 78.9364 271.773 77.2131C272.936 75.4897 274.581 74.1916 276.708 73.3188C278.856 72.4235 281.408 71.9759 284.362 71.9759C287.518 71.9759 290.215 72.4683 292.453 73.4531C294.691 74.4154 296.403 75.9038 297.589 77.9181C298.798 79.91 299.402 82.4502 299.402 85.5388C299.402 86.1207 299.402 86.6019 299.402 86.9824C299.402 87.3404 299.402 87.8104 299.402 88.3924H296.783C296.783 87.8328 296.783 87.374 296.783 87.0159C296.783 86.6354 296.783 86.1654 296.783 85.6059C296.783 81.6221 295.698 78.7462 293.527 76.9781C291.378 75.21 288.346 74.3259 284.429 74.3259C280.691 74.3259 277.793 75.0981 275.734 76.6424C273.675 78.1866 272.646 80.5031 272.646 83.5916C272.646 85.8969 273.216 87.8104 274.358 89.3323C275.521 90.8319 277.111 92.0964 279.125 93.1259C281.139 94.1331 283.433 95.0731 286.007 95.9459C288.916 96.9083 291.39 97.9826 293.426 99.1688C295.485 100.355 297.052 101.81 298.126 103.533C299.223 105.256 299.771 107.45 299.771 110.113C299.771 112.732 299.189 114.97 298.026 116.827C296.884 118.685 295.194 120.117 292.956 121.124C290.741 122.109 288.01 122.602 284.765 122.602Z" fill="white"/>
<path d="M326.064 122.602C323.311 122.602 320.782 122.031 318.477 120.889C316.172 119.726 314.168 118.047 312.468 115.854C310.789 113.638 309.48 110.964 308.54 107.83C307.622 104.697 307.163 101.149 307.163 97.1881C307.163 93.2266 307.633 89.6904 308.573 86.5795C309.513 83.4462 310.834 80.8052 312.535 78.6566C314.236 76.4857 316.228 74.8295 318.51 73.6881C320.816 72.5466 323.333 71.9759 326.064 71.9759C328.794 71.9759 331.312 72.5466 333.618 73.6881C335.923 74.8295 337.926 76.4857 339.627 78.6566C341.328 80.8052 342.637 83.4462 343.555 86.5795C344.495 89.6904 344.965 93.2266 344.965 97.1881C344.965 101.149 344.495 104.697 343.555 107.83C342.637 110.964 341.328 113.638 339.627 115.854C337.948 118.047 335.956 119.726 333.651 120.889C331.346 122.031 328.817 122.602 326.064 122.602ZM326.064 120.252C329.242 120.252 332.051 119.334 334.49 117.499C336.952 115.641 338.866 112.989 340.231 109.542C341.619 106.073 342.313 101.955 342.313 97.1881C342.313 92.3985 341.608 88.3028 340.198 84.9009C338.81 81.4766 336.896 78.8693 334.457 77.0788C332.017 75.2659 329.22 74.3595 326.064 74.3595C322.931 74.3595 320.133 75.2659 317.671 77.0788C315.232 78.8693 313.307 81.4766 311.897 84.9009C310.509 88.3028 309.815 92.3985 309.815 97.1881C309.815 101.978 310.509 106.096 311.897 109.542C313.307 112.989 315.232 115.641 317.671 117.499C320.133 119.334 322.931 120.252 326.064 120.252Z" fill="white"/>
<path d="M354.153 121.997V72.4795H356.738V121.091L355.563 119.681H377.015V121.997H354.153Z" fill="white"/>
<path d="M383.382 121.997L397.851 72.2781H401.746L416.114 121.997H413.395L399.765 74.2588H399.832L386.101 121.997H383.382ZM389.223 107.528V105.212H410.373V107.528H389.223Z" fill="white"/>
<path d="M424.378 121.997V72.4795H439.653C443.771 72.4795 446.949 73.4866 449.187 75.5009C451.425 77.4928 452.544 80.6933 452.544 85.1024C452.544 87.7881 452.03 90.0709 451 91.9509C449.993 93.8309 448.796 95.2857 447.408 96.3152C446.02 97.3223 444.778 97.9043 443.681 98.0609C444.778 98.1504 445.897 98.475 447.039 99.0345C448.202 99.5716 449.176 100.411 449.959 101.552C450.743 102.671 451.134 104.182 451.134 106.084C451.134 108.099 451.134 110.191 451.134 112.362C451.134 114.511 451.134 116.592 451.134 118.607C451.134 119.479 451.213 120.229 451.369 120.856C451.526 121.46 451.66 121.841 451.772 121.997H449.12C449.031 121.818 448.907 121.438 448.751 120.856C448.616 120.252 448.549 119.502 448.549 118.607C448.549 116.659 448.549 114.634 448.549 112.53C448.549 110.426 448.549 108.401 448.549 106.454C448.549 103.947 447.732 102.123 446.099 100.982C444.465 99.8402 442.283 99.2695 439.552 99.2695H426.056L426.896 98.2288V121.997H424.378ZM426.896 98.0945L426.056 96.9866H439.552C441.41 96.9866 443.122 96.5054 444.689 95.5431C446.255 94.5807 447.509 93.2266 448.449 91.4809C449.411 89.7352 449.892 87.6538 449.892 85.2366C449.892 81.5214 448.963 78.8581 447.106 77.2466C445.271 75.6128 442.585 74.7959 439.049 74.7959H426.023L426.896 73.6545V98.0945Z" fill="white"/>
<mask id="mask0_0_1" style="mask-type:alpha" maskUnits="userSpaceOnUse" x="106" y="0" width="269" height="194">
<path fill-rule="evenodd" clip-rule="evenodd" d="M174.058 187.906C203.583 181.575 239.619 166.204 275.098 143.235C310.577 120.266 338.629 94.1481 355.329 70.5541C363.683 58.7518 369.134 47.6672 371.309 37.9909C373.484 28.3173 372.349 20.2525 367.85 14.1972C363.351 8.14192 355.657 4.32325 345.189 2.83433C334.718 1.34498 321.686 2.2266 306.917 5.39374C277.391 11.7252 241.355 27.0966 205.876 50.0653C170.397 73.034 142.346 99.152 125.646 122.746C117.292 134.548 111.84 145.633 109.665 155.309C107.491 164.983 108.626 173.048 113.125 179.103C117.624 185.158 125.318 188.977 135.786 190.466C146.256 191.955 159.289 191.074 174.058 187.906ZM111.446 180.19C131.22 206.805 205.023 190.978 276.291 144.84C347.559 98.7025 389.303 39.725 369.529 13.1103C349.755 -13.5044 275.951 2.32216 204.684 48.4599C133.416 94.5976 91.6718 153.575 111.446 180.19Z" fill="white"/>
</mask>
<g mask="url(#mask0_0_1)">
<path d="M191.205 -29.2725L475.5 -29.2725L228.828 213.392L51.1578 213.665L126 112L129 124.5L177 93L170.5 65L191.205 -29.2725Z" fill="white"/>
</g>
</svg>
